# xmcd
#
# Track frame offsets:
#	150
#	14859
#	33106
#	49618
#	61720
#	75831
#	91097
#	102156
#	119013
#	129490
#
# Disc length: 1966 seconds
#
# Revision: 0
# Processed by: cddbd v1.5.2PL0 Copyright (c) Steve Scherf et al.
# Submitted via: audiograbber 1.83.01
#
DISCID=7107ac0a
DTITLE=Various Artist - CD TEX Vol 63 Mar 2008
DYEAR=2008
DGENRE=Texas Country
TTITLE0=Deanne Moore - Cowboy Talkin'
TTITLE1=Jerry Lee Surber - Mornin' Light
TTITLE2=Tim Fralik - One More
TTITLE3=Jim Chesnut - If Waylon Ain't In Heaven
TTITLE4=Vince Hatfield - Stuck On You
TTITLE5=Sunny Sweeney - Ten Years Pass
TTITLE6=Jimmy Baldwin - Brown Paper Koozie Blues
TTITLE7=Red Dvorak - That's The Way It Is
TTITLE8=Billy Mata and The Texas Tradition - Cielito Lindo
TTITLE9=Billy O'rourke - She Just Wants To Dance
EXTD=
EXTT0=
EXTT1=
EXTT2=
EXTT3=
EXTT4=
EXTT5=
EXTT6=
EXTT7=
EXTT8=
EXTT9=
PLAYORDER=
